<svg xmlns="http://www.w3.org/2000/svg" viewBox="40 45 2355 760" role="img" aria-label="Arkx">
  <title>Arkx custom wordmark</title>
  <path fill="currentColor" fill-rule="evenodd" d="M45 800 265 125 300 70 330 50H430L460 70L495 125L715 800H548L493 628H267L212 800ZM438 485H322L353 315H407Z M790 800H950V495Q970 390 1068 390H1110L1156 349V295L1128 267H1068Q993 267 950 322V267H790Z M1298 800V50H1458V800ZM1448 510 1645 267H1810L1590 530L1810 800H1638L1448 562Z M1864 800H2037L2392 312L2372 267H2227ZM2227 800H2372L2392 755L2037 267H1864Z"/>
</svg>
