<?xml version="1.0" encoding="utf-8"?>
<!-- Generator: Adobe Illustrator 24.0.0, SVG Export Plug-In . SVG Version: 6.00 Build 0)  -->
<svg version="1.1" id="图层_1" xmlns="http://www.w3.org/2000/svg" xmlns:xlink="http://www.w3.org/1999/xlink" x="0px" y="0px"
	 viewBox="0 0 1419.1 222.6" style="enable-background:new 0 0 1419.1 222.6;" xml:space="preserve">
<style type="text/css">
	.st0{fill:#FFFFFF;}
	.st1{fill:none;stroke:#004369;stroke-width:0.2481;stroke-miterlimit:10;}
	.st2{fill:#004369;}
	.st3{fill:none;stroke:#FFFFFF;stroke-width:0.25;stroke-miterlimit:10;}
	.st4{fill:none;stroke:#004369;stroke-width:0.8115;stroke-miterlimit:10;}
	.st5{clip-path:url(#SVGID_2_);}
</style>
<g>
	<path class="st2" d="M111.8,9.7L2.8,192.6c-7.9,13.2,1.6,30,17.1,30h218c15.4,0,25-16.8,17.1-30L146,9.7
		C138.3-3.2,119.5-3.2,111.8,9.7z"/>
	<rect x="1075.4" y="55.8" class="st2" width="140.4" height="20.1"/>
	<polygon class="st2" points="1063.5,126 1101.8,126 1071,187.2 1071,194.7 1221,194.7 1221,187.2 1199.2,143.8 1174.3,143.8 
		1189.7,174.3 1102.3,174.3 1126.7,126 1228.5,126 1228.5,105.9 1063.5,105.9 	"/>
	<path class="st2" d="M1254.1,55.6L1254.1,55.6l0,139.1h0h69V55.6H1254.1z M1273.1,98.2V73.6h10v24.6v18h-10V98.2z M1273.1,175.8
		v-23.7v-18h10v18v23.7H1273.1z M1304,152.1v23.7h-10v-23.7v-18h10V152.1z M1304,98.2v18h-10v-18V73.6h10V98.2z"/>
	<path class="st2" d="M1329.8,135.8v58.9h88.8h0.5v-58.9h-0.5H1329.8z M1348.9,176.7L1348.9,176.7v-22.9v-0.1h51.1v0.1v22.8v0.1
		H1348.9z"/>
	<polygon class="st2" points="1349.6,55.6 1349.6,45.9 1329.8,54.4 1329.8,73.6 1400,73.6 1400,84.2 1374.5,95.1 1329.8,76.1 
		1329.8,76.2 1329.8,95.2 1352,104.6 1329.8,114.1 1329.8,133.3 1374.5,114.2 1419.1,133.3 1419.1,114.1 1396.9,104.6 1419.1,95.2 
		1419.1,55.6 	"/>
	<path class="st2" d="M856.3,197.4c-30.9,0-56-24.3-56-55.2V55.8h25.2v86.4c0,17,13.8,30,30.8,30c17,0,30.8-13,30.8-30V55.8h25.2
		v86.4C912.3,173.1,887.2,197.4,856.3,197.4z"/>
	<path class="st2" d="M469,197.4c-30.9,0-56-24.3-56-55.2V55.8h25.2v86.4c0,17,13.8,30,30.8,30s30.8-13,30.8-30V55.8h25.2v86.4
		C525.1,173.1,499.9,197.4,469,197.4z"/>
	<polygon class="st2" points="782.9,171.2 722.2,171.2 722.2,55.8 696.9,55.8 696.9,194.6 782.9,194.6 	"/>
	<polygon class="st2" points="1030.9,79.2 1030.9,55.8 941.5,55.8 941.5,194.6 1030.9,194.6 1030.9,171.2 966.8,171.2 966.8,134.1 
		1021.6,134.1 1021.6,110.7 966.8,110.7 966.8,79.2 	"/>
	<polygon class="st2" points="667.6,55.8 642.4,55.8 642.4,150.6 580,55.8 579.5,55.8 554.3,55.8 554.3,55.8 554.3,194.6 
		579.5,194.6 579.5,99.8 641.9,194.6 667.3,194.6 667.6,194.6 	"/>
	<polygon class="st2" points="325.1,194.6 350.3,194.6 350.3,138.6 397.9,55.8 369.2,55.8 337.7,110.6 306.3,55.8 277.6,55.8 
		325.1,138.6 	"/>
	<path class="st0" d="M148.4,185.7l-13.9-6.7v-2.9c1.9-1.2,3.3-2.9,3.7-4.9c1.9-0.3,3.3-1.9,3.3-3.8v-2.7c0-1.1-0.8-2-1.8-2.4v-5.1
		h0c0,0,0,0,0,0v0h0c0-4.6-4.9-8.3-10.8-8.3c-6,0-10.8,3.7-10.8,8.3h0v0c0,0,0,0,0,0h0v5.1c-1,0.3-1.8,1.2-1.8,2.4v2.7
		c0,1.9,1.4,3.5,3.3,3.8c0.5,2,1.8,3.7,3.7,4.9v2.9l-13.9,6.7c-1.3,0.6-2.2,1.8-2.5,3.2l-2.4,12.3c-0.4,1.8,1.1,3.5,3,3.5h42.9
		c1.9,0,3.4-1.7,3-3.5l-2.4-12.3C150.6,187.6,149.7,186.4,148.4,185.7z"/>
	<path class="st0" d="M81,185.7L67.1,179v-2.9c1.9-1.2,3.3-2.9,3.7-4.9c1.9-0.3,3.3-1.9,3.3-3.8v-2.7c0-1.1-0.8-2-1.8-2.4v-5.1h0
		c0,0,0,0,0,0v0h0c0-4.6-4.9-8.3-10.8-8.3s-10.8,3.7-10.8,8.3h0v0c0,0,0,0,0,0h0v5.1c-1,0.3-1.8,1.2-1.8,2.4v2.7
		c0,1.9,1.4,3.5,3.3,3.8c0.5,2,1.8,3.7,3.7,4.9v2.9L42,185.7c-1.3,0.6-2.2,1.8-2.5,3.2l-2.4,12.3c-0.4,1.8,1.1,3.5,3,3.5H83
		c1.9,0,3.4-1.7,3-3.5l-2.4-12.3C83.3,187.6,82.3,186.4,81,185.7z"/>
	<path class="st0" d="M215.8,185.7l-13.9-6.7v-2.9c1.9-1.2,3.3-2.9,3.7-4.9c1.9-0.3,3.3-1.9,3.3-3.8v-2.7c0-1.1-0.8-2-1.8-2.4v-5.1
		h0c0,0,0,0,0,0v0h0c0-4.6-4.9-8.3-10.8-8.3s-10.8,3.7-10.8,8.3h0v0c0,0,0,0,0,0l0,0v5.1c-1,0.3-1.8,1.2-1.8,2.4v2.7
		c0,1.9,1.4,3.5,3.3,3.8c0.5,2,1.8,3.7,3.7,4.9v2.9l-13.9,6.7c-1.3,0.6-2.2,1.8-2.5,3.2l-2.4,12.3c-0.4,1.8,1.1,3.5,3,3.5h42.9
		c1.9,0,3.4-1.7,3-3.5l-2.4-12.3C218,187.6,217.1,186.4,215.8,185.7z"/>
	<path class="st0" d="M116.4,66.8c1.2,4.9,6.3,8.6,12.5,8.6c6.2,0,11.4-3.7,12.5-8.6c2.5-0.5,4.4-2.6,4.4-5.1V58
		c0-1.5-1-2.7-2.4-3.2V48h0c0-6.1-6.5-11.1-14.5-11.1s-14.4,4.9-14.5,11.1h0v0.1c0,0,0,0,0,0v6.7c-1.4,0.4-2.4,1.7-2.4,3.2v3.7
		C112,64.2,113.9,66.3,116.4,66.8z"/>
	<path class="st0" d="M161.6,107l-3.3-16.5c-0.4-1.9-1.6-3.4-3.3-4.3l-13.7-6.6c-0.4-0.2-0.9,0-1.1,0.4l-7.1,14.7
		c-0.1,0.1-0.3,0.1-0.3,0l-1.6-11.1c0-0.1,0-0.2,0.1-0.3l2-2.6c0.1-0.2,0.1-0.4,0-0.5c-0.2-0.3-0.4-0.8-0.6-1.1
		c-0.1-0.1-0.2-0.2-0.4-0.2h-6.9c-0.2,0-0.3,0.1-0.4,0.2c-0.1,0.3-0.4,0.7-0.6,1.1c-0.1,0.2-0.1,0.4,0,0.5l2,2.6
		c0.1,0.1,0.1,0.2,0.1,0.3L125,94.7c0,0.2-0.2,0.2-0.3,0L117.6,80c-0.2-0.4-0.7-0.6-1.1-0.4l-13.7,6.6c-1.7,0.8-3,2.4-3.3,4.3
		L96.2,107c-0.5,2.4,1.5,4.7,4,4.7h57.4C160.2,111.8,162.1,109.5,161.6,107z"/>
	<polygon class="st0" points="131.2,128 131.2,117.8 126.6,117.8 126.6,128 59.2,128 59.2,142.8 63.8,142.8 63.8,132.5 194,132.5 
		194,142.8 198.6,142.8 198.6,128 	"/>
</g>
</svg>
